# xmcd CD database file
#
# Track frame offsets:
#	183
#	8945
#	20870
#	34055
#	43760
#	54965
#	65830
#	85558
#	96555
#	104025
#	114445
#	122025
#	133943
#	149283
#	158820
#	170103
#	182885
#	200898
#	208295
#	218723
#	231948
#
# Disc length: 3345 seconds
#
# Revision: 1
# Processed by: cddbd v1.5.1PL2 Copyright (c) Steve Scherf et al.
# Submitted via: CDex 1.51
#
DISCID=4a0d0f15
DTITLE=Venkow - Mezi patym a sestym
DYEAR=1900
DGENRE=Country
TTITLE0=Vlak do stanice nebe
TTITLE1=Pivovarska
TTITLE2=Mladenci slava
TTITLE3=Strasidla
TTITLE4=Delirium kredenc
TTITLE5=Prapradedek
TTITLE6=Don Fernando
TTITLE7=Posledni kombajn
TTITLE8=Zizen
TTITLE9=Mame v kapse vejplatu
TTITLE10=Ze to pivo nevypiju
TTITLE11=Kacak
TTITLE12=Devet druhu tezkych vin
TTITLE13=Zvedni pravici s plnou sklenici
TTITLE14=Pivni boogie
TTITLE15=Celisti
TTITLE16=Sestnacte stoleti
TTITLE17=Flam
TTITLE18=Samba
TTITLE19=Cernej Bobby
TTITLE20=SMES
EXTD=
EXTT0=
EXTT1=
EXTT2=
EXTT3=
EXTT4=
EXTT5=
EXTT6=
EXTT7=
EXTT8=
EXTT9=
EXTT10=
EXTT11=
EXTT12=
EXTT13=
EXTT14=
EXTT15=
EXTT16=
EXTT17=
EXTT18=
EXTT19=
EXTT20=
PLAYORDER=
